<svg xmlns="http://www.w3.org/2000/svg" viewBox="0 0 399.7 142.09"><defs><style>.cls-1{fill:#f30818;}.cls-2{fill:#f5ab1a;}</style></defs><title>mastercard-icon</title><g id="Layer_2" data-name="Layer 2"><g id="Layer_1-2" data-name="Layer 1"><g id="mastercard"><path class="cls-1" d="M259.2,0c1.9.5,3.7.9,5.6,1.5L269.6,3c.7.2.8.6.7,1.3-.6,3.7-1.2,7.5-1.8,11.3a3.75,3.75,0,0,0-.1,1.1c-1.2-.5-2.3-1-3.5-1.5a18.14,18.14,0,0,0-7.9-1.7,14,14,0,0,0-8.2,3,19.33,19.33,0,0,0-6.1,9.5,33.13,33.13,0,0,0-1.2,15,12.89,12.89,0,0,0,2.8,6.7,10.56,10.56,0,0,0,10.6,3.9,45.72,45.72,0,0,0,6.3-1.9c.8-.3,1.5-.6,2.4-1-.5,2.9-.9,5.8-1.4,8.7l-.6,4.2c-.1.6-.3,1.1-1,1.2-6,1.6-12.1,2.5-18.1.2a17.5,17.5,0,0,1-8.9-6.9,27.28,27.28,0,0,1-3.2-6.1,31.74,31.74,0,0,1-1.7-8,65.43,65.43,0,0,1,0-9.9,26.18,26.18,0,0,1,.9-5.6,61.71,61.71,0,0,1,3-9.5c2.2-4.8,5.1-9.2,9.7-12.1a36.77,36.77,0,0,1,5.8-3.2A35.28,35.28,0,0,1,253.7.3c.2-.1.4-.1.6-.2C255.7,0,257.4,0,259.2,0Z"/><path class="cls-1" d="M12.1,1.4H30.39c.1,12.46.3,24.92.4,37.38.1,0,.2.1.3.1C35.21,26.42,39,14,43.15,1.4h19.6c-.28,1.47-.47,2.86-.73,4.31L59.77,19.59c-.92,6.56-2.06,13.13-3.05,19.69C55.91,44.71,55,50,54.21,55.46c-.41,2.61-.81,5.23-1.21,7.94H40.48c2.31-15.5,4.73-31,7-46.5-.1,0-.2,0-.2-.1-.5,1.41-1,2.92-1.51,4.32C44.7,24.55,43.5,28,42.39,31.39c-.71,2.12-1.51,4.23-2.32,6.34-1,2.92-1.91,5.94-2.92,8.86-.7,2-1.4,3.93-2.11,5.84-1.11,3.22-2.21,6.44-3.22,9.76-.3.81-.6,1.21-1.61,1.21-2.42-.1-4.83,0-7.45,0-.4-15.4-.7-30.69-1.11-46l-.3,0c-2.51,15.3-4.93,30.61-7.45,46H2.15c.3-1.71.61-3.42.81-5.12.6-4.12,1.2-8.24,1.91-12.36.3-2.11.8-4.12,1.1-6.23.91-5.63,1.81-11.36,2.72-17,.8-5.32,1.7-10.65,2.51-16.07A43.89,43.89,0,0,0,12.1,1.4Z"/><path class="cls-1" d="M380.1,1.8q-4.8,30.75-9.5,61.6H358.7c.2-1.5.4-3,.7-4.7-1.1,1-2.1,1.8-3,2.6a12,12,0,0,1-6.8,2.7,13.78,13.78,0,0,1-6.7-.7,13,13,0,0,1-6.2-4.9,24.59,24.59,0,0,1-4.1-13.9A41.07,41.07,0,0,1,334.3,31a50.19,50.19,0,0,1,3.3-7.5,25.5,25.5,0,0,1,3.1-4.7c3.2-3.6,7.2-6.2,12.2-6.3a12.43,12.43,0,0,1,6.9,1.9,30.22,30.22,0,0,1,5.3,4.9c.9-5.9,1.8-11.6,2.8-17.4C371.8,1.8,375.9,1.8,380.1,1.8ZM362.3,34.9c-.2-1.8-.4-3.4-.7-5a6.54,6.54,0,0,0-2.3-4.1c-3.8-2.9-7.6-1.1-9.8,1.7a16.4,16.4,0,0,0-2.9,6.1,25.68,25.68,0,0,0-.6,12.3,6.8,6.8,0,0,0,2.5,4.4c3,2,5.7,1.3,8.3-.7a12.75,12.75,0,0,0,4.3-7.4C361.7,39.8,361.9,37.2,362.3,34.9Z"/><path class="cls-2" d="M330.15,94.91c.91-6,1.82-11.67,2.62-17.51h11.58c-.2,1.41-.41,2.82-.61,4.33-.7,4.83-1.31,9.56-2,14.39-.3,2.32-.81,4.63-1.11,7q-1.35,9.36-2.72,18.72c-.8,5.63-1.61,11.27-2.51,16.91,0,.3-.4.6-.71.6H324.62c-.1,0-.2-.1-.4-.1.2-1.44.3-2.88.51-4.31l-.21-.12c-.7.6-1.41,1.21-2.12,1.91a11.73,11.73,0,0,1-6.84,3.22,12,12,0,0,1-7.45-1.3,14.12,14.12,0,0,1-5.43-5.44c-3.63-6.74-3.73-14-2.62-21.34a42.25,42.25,0,0,1,3.22-11.07,26,26,0,0,1,7.05-9.46,13.24,13.24,0,0,1,11.77-2.82,11,11,0,0,1,5.24,3.22C328.34,92.8,329.15,93.81,330.15,94.91ZM311.9,117.7a13.2,13.2,0,0,0,1.5,7.6,4.32,4.32,0,0,0,2.8,2.3c4.4,1,6.9-1.3,8.7-4.7a19.86,19.86,0,0,0,1.5-4.3c1.2-4.7,1.7-9.3-.1-14-1.4-3.8-5.7-4.7-8.9-2.4a10.94,10.94,0,0,0-3.8,5.4A25.58,25.58,0,0,0,311.9,117.7Z"/><path class="cls-1" d="M65.6,26c.5-3.6,1.1-7.1,1.6-10.5,0-.3.3-.7.6-.7a53.33,53.33,0,0,1,10.5-2.4,30.37,30.37,0,0,1,10.4.5,13.91,13.91,0,0,1,7,4.1,11.66,11.66,0,0,1,2.9,6.6,47.72,47.72,0,0,1-1,14.1c-.7,3.7-1,7.5-1.6,11.3l-1.2,7.8c-.3,2.2-.5,4.4-.8,6.6H83.7V58.5c-.4.4-.8.9-1.2,1.3-3.7,3.9-8.4,5-13.5,4.4a9.73,9.73,0,0,1-7.6-5.3C58.9,54.4,58.8,49.8,60,45a17,17,0,0,1,2.8-6.1,16,16,0,0,1,6.4-5.1c4.9-2.4,10-2.6,15.3-2.4.3,0,.7.1,1,.1a6.25,6.25,0,0,1,1.2.1,28,28,0,0,0,.3-4,3.42,3.42,0,0,0-2.3-3c-3.1-1.2-6.3-1-9.5-.7a28.88,28.88,0,0,0-8.6,1.9C66.2,26,65.9,25.9,65.6,26ZM85.3,40.9a16.68,16.68,0,0,0-6.4-.1c-4,.7-7,2.7-7.2,6.8-.1,2.1.6,4.4,2.1,5.1a6.05,6.05,0,0,0,6.1-.4C84.2,49.7,85.1,45.4,85.3,40.9Z"/><path class="cls-1" d="M272.7,26c.6-3.8,1.1-7.5,1.7-11.4,3.6-.8,7.3-1.6,10.9-2.2a23.38,23.38,0,0,1,10.5.6c3.3.9,6,2.4,7.8,5.3a15.58,15.58,0,0,1,1.7,3.7,27.45,27.45,0,0,1,.1,10.3c-.8,5.7-1.7,11.4-2.5,17-.7,4.7-1.2,9.3-1.9,14.1H290.6c.1-1.6.2-3.2.2-5-1.1,1-2,1.8-2.9,2.7a12.91,12.91,0,0,1-6.4,2.9,14.51,14.51,0,0,1-8-.4,10,10,0,0,1-4.3-3.2c-3.3-4.3-3.6-9.2-2.6-14.3a16.35,16.35,0,0,1,6.5-10.6,20.22,20.22,0,0,1,10.2-3.8c3-.3,6.1-.1,9.1-.1.7,0,1.1,0,1.2-.8a26.6,26.6,0,0,0,.3-2.8c0-1.8-1.1-3.1-3.4-3.7a24.8,24.8,0,0,0-8.6-.3,33.07,33.07,0,0,0-8.7,1.9C273.2,26,273,26,272.7,26Zm19.4,14.8a11.14,11.14,0,0,0-1.7-.2c-2.1.2-4.1.3-6.2.6-4.7.8-6.5,4.8-5.6,8.8a3.73,3.73,0,0,0,2.4,2.9,7.24,7.24,0,0,0,7.9-2.3C291.1,47.7,291.7,44.4,292.1,40.8Z"/><path class="cls-2" d="M255.6,118.6a42.13,42.13,0,0,1,2.5-14.5,24.71,24.71,0,0,1,4.6-7.8,18.28,18.28,0,0,1,7.2-5.4,19.47,19.47,0,0,1,12.6-1.1,15.29,15.29,0,0,1,10.2,7.9,37.55,37.55,0,0,1,2.5,6.3,40.24,40.24,0,0,1,.7,12,41.91,41.91,0,0,1-1.7,9.9,32,32,0,0,1-1.7,4.3,21.21,21.21,0,0,1-4.7,6.4,19.78,19.78,0,0,1-11.3,5,18.88,18.88,0,0,1-10.5-1.4,16.08,16.08,0,0,1-5.4-4.3,22.41,22.41,0,0,1-3.4-6.5c-.1-.4-.3-.8-.4-1.2-.5-3.2-.9-6.4-1.4-9.6C255.4,118.7,255.5,118.6,255.6,118.6Zm28.3-6.2h-.3a15.43,15.43,0,0,0-1.2-7.4,5.11,5.11,0,0,0-3-3.1c-3.2-1-5.4.1-7.3,2.5a18.75,18.75,0,0,0-3.7,9.1,45.84,45.84,0,0,0-.2,8.3,9.52,9.52,0,0,0,2.3,6.2,5.7,5.7,0,0,0,7.7.7,11.32,11.32,0,0,0,4.1-6.6C283,118.8,283.4,115.6,283.9,112.4Z"/><path class="cls-1" d="M196.2,42.4H171.3c-.3,2.7-.1,5.3,1.8,7.4a9.31,9.31,0,0,0,5.4,2.7,22.05,22.05,0,0,0,10.2-.5c2.2-.6,4.4-1.4,6.6-2.1-.5,3-1,6.1-1.6,9.3v.1c-.1.9.1,2.2-.5,2.7a5.28,5.28,0,0,1-3.1,1.1,88.29,88.29,0,0,1-10.2,1.1,21.25,21.25,0,0,1-11.1-2.4,15.71,15.71,0,0,1-6.3-5.7c-3.1-4.9-3.8-10.4-3.6-16a39.91,39.91,0,0,1,2.7-13.3c.9-2.1,2.2-4,3.3-6a18.06,18.06,0,0,1,4.3-4.8,18.8,18.8,0,0,1,10.5-4.2,18.23,18.23,0,0,1,9.2,1.7A15.68,15.68,0,0,1,197.2,24a28.11,28.11,0,0,1,.5,10c-.3,2.5-.8,5-1.2,7.6A6.89,6.89,0,0,0,196.2,42.4ZM185.9,32.2a12.72,12.72,0,0,0-.3-5.5,5.74,5.74,0,0,0-1.5-2.3,6.07,6.07,0,0,0-5.5-1.2,6.43,6.43,0,0,0-3.8,2.4,13,13,0,0,0-2.7,6.5C176.7,32.2,181.2,32.2,185.9,32.2Z"/><path class="cls-2" d="M117.3,89.4h12.8s-.5,3.6-.7,5c-.7,4.9-1.4,9.9-2.1,14.8-.5,3.3-1,6.5-1.3,9.8a12.92,12.92,0,0,0,.2,4.4,3.74,3.74,0,0,0,2.8,3.1,6.55,6.55,0,0,0,6.5-2.1c2.6-3.1,3.5-6.7,4.1-10.6.7-4.7,1.5-9.4,2.2-14.2.5-3.1,1.4-9.2,1.4-9.2h11.94c-2.38,16.3-4.75,32.6-7.12,49H137.2c.3-2.53.61-5.05.91-7.58-.1,0-.2-.1-.3-.1-.71.91-1.42,1.82-2,2.73a15.71,15.71,0,0,1-6.06,5.15,11.75,11.75,0,0,1-8.09.71c-3.23-.91-5-3.23-6.36-6.06a23.26,23.26,0,0,1-2-10.1,78.18,78.18,0,0,1,1.11-12.73c.71-4,1-8.18,1.62-12.22.3-2.53.71-5,1.11-7.48A16.57,16.57,0,0,0,117.3,89.4Z"/><path class="cls-2" d="M36.6,91.6a3.55,3.55,0,0,1-.9-.4A17.79,17.79,0,0,0,23.6,89c-5.5.7-6.6,5.6-4.5,9a6.36,6.36,0,0,0,2,2c1.7,1.1,3.6,2.1,5.4,3.1a17.28,17.28,0,0,1,6.8,6.6,20.33,20.33,0,0,1,2.2,10.5,28.05,28.05,0,0,1-2.2,10.7,13.42,13.42,0,0,1-4,5.4,23.88,23.88,0,0,1-5.7,3.4,40.09,40.09,0,0,1-7.8,1.7,21.68,21.68,0,0,1-9.1-1c-2.3-.7-4.5-1.4-6.7-2,1-4.3,1.9-8.5,2.8-12.5,1.6.7,3.3,1.6,4.9,2.2a16.09,16.09,0,0,0,10.6.4c4.7-1.5,5.5-4.6,4.7-9.1a5.57,5.57,0,0,0-2.7-3.5c-2.3-1.4-4.6-2.7-6.9-4.2-4.1-2.7-6.9-6.4-7.2-11.4A30.92,30.92,0,0,1,7,89.8a18.58,18.58,0,0,1,4.6-8.2,17.63,17.63,0,0,1,7.8-4.3c5.3-1.4,10.5-.9,15.8.1a20.83,20.83,0,0,1,3.9,1.5,1,1,0,0,1,.4.9c-.8,3.7-1.7,7.5-2.6,11.2Z"/><path class="cls-2" d="M51,119.5c-.3,2.8-.1,5.4,1.8,7.5a9,9,0,0,0,6.2,2.8,22.43,22.43,0,0,0,11.4-1.7c1-.4,1.9-.9,3.2-1.4-.2,1.4-.5,2.6-.7,3.8-.4,2.5-.8,5-1.2,7.6a1.41,1.41,0,0,1-1.2,1.4c-2.4.5-4.7,1.1-7.1,1.5a26.12,26.12,0,0,1-12.1-1.1,16.14,16.14,0,0,1-6.3-4,19.42,19.42,0,0,1-4.9-10.3,37.68,37.68,0,0,1-.5-8.2,58.39,58.39,0,0,1,1-8.4,30,30,0,0,1,3.5-9.6,29.53,29.53,0,0,1,3.4-4.5,18,18,0,0,1,5-4.1,16.17,16.17,0,0,1,12.9-1.2,13.51,13.51,0,0,1,6.4,4.3,17.59,17.59,0,0,1,3.4,7c1.3,5,.8,10-.1,14.9a19,19,0,0,0-.3,2.5c0,1.45-1,1.26-4.72.62l-17.25.42A7.89,7.89,0,0,1,51,119.5Zm.7-10.1H65.1c-.2-1.8-.3-3.6-.6-5.4-.7-3.3-4.4-4.5-7.1-3.4a7.29,7.29,0,0,0-4,3.9C52.7,106,52.3,107.7,51.7,109.4Z"/><path class="cls-2" d="M190.9,120.2c-.7,3.4.4,7.3,3.6,9.1a12.64,12.64,0,0,0,6.9,1.4,24,24,0,0,0,10.2-2.5,13.08,13.08,0,0,1,1.5-.5c-.2,1.1-.3,2.1-.5,3.1-.4,2.8-.8,5.6-1.3,8.4a1.65,1.65,0,0,1-.8,1c-6.1,1.9-12.3,2.7-18.6.8a15.9,15.9,0,0,1-9.9-8,28.57,28.57,0,0,1-2.6-9.5,36.8,36.8,0,0,1,1.2-14.4,56.32,56.32,0,0,1,2.4-6.9,20.94,20.94,0,0,1,6.4-8.6c4.1-3.3,8.8-4.7,14-3.5,5.7,1.2,9.4,4.9,11.2,10.4a25.9,25.9,0,0,1,1,10.7c-.2,2.8-.8,5.5-1.2,8.3-.1.8-.5.9-1.2.9H192.1A2.54,2.54,0,0,0,190.9,120.2Zm13.8-10.8v-2.9c-.1-2.1-.6-3.9-2.4-5.2a5.61,5.61,0,0,0-7.7,1,17.92,17.92,0,0,0-2.5,4.5,9.05,9.05,0,0,0-.6,2.6Z"/><path class="cls-2" d="M354.9,119.3c-.6,3.4.4,7.2,3.6,9a12.79,12.79,0,0,0,4.3,1.4,22.35,22.35,0,0,0,12.7-2.2c.6-.3,1.2-.5,1.8-.8-.6,3.9-1.2,7.7-1.8,11.6a1.18,1.18,0,0,1-1,1.1c-6,1.7-12,2.5-18.2.8a16.54,16.54,0,0,1-10.6-8.9,24.79,24.79,0,0,1-2.2-8.8,44.45,44.45,0,0,1,1.2-15,32.86,32.86,0,0,1,3.7-9.1,24,24,0,0,1,5.6-6.3,16,16,0,0,1,10.7-3.4c5.2.3,9.3,2.4,12.1,7a21.38,21.38,0,0,1,2.8,10.2,59.77,59.77,0,0,1-1.2,12.6c-.1.8-.5.9-1.2.9H356A3.75,3.75,0,0,0,354.9,119.3Zm14-9.7c0-1.5.1-2.9,0-4.2a5.3,5.3,0,0,0-7.6-4.4c-3.6,1.6-4.6,5.1-5.4,8.7C360.2,109.6,364.5,109.6,368.9,109.6Z"/><path class="cls-2" d="M259.5,80.4c-.6,4.4-1.3,8.8-1.9,13.2-1.1-.5-2.2-1.1-3.3-1.6-4.1-1.8-8.3-2.5-12.5-.4A11.35,11.35,0,0,0,237,96c-.9,1.5-1.7,3-2.5,4.6a27.9,27.9,0,0,0-2.1,8.5,25.41,25.41,0,0,0,.3,9.9,14.45,14.45,0,0,0,3.3,6.8,9.51,9.51,0,0,0,7.5,2.9,22.77,22.77,0,0,0,9.6-3.2c-.5,3.5-1,6.9-1.5,10.3a18.1,18.1,0,0,0-.3,2.3c.1,1.1-.4,1.5-1.4,1.8-4.9,1.2-9.8,2.1-14.9.6a17.66,17.66,0,0,1-9.9-7.2,30,30,0,0,1-4.7-14.2,61.85,61.85,0,0,1,.3-12.9,42.68,42.68,0,0,1,2-8.4,46.64,46.64,0,0,1,3-7.3,24.79,24.79,0,0,1,6.6-8.1,31.28,31.28,0,0,1,5.8-3.6,22.42,22.42,0,0,1,15.2-.7c1.7.7,3.5,1.1,5.3,1.7Z"/><path class="cls-1" d="M100.5,50.9a31.9,31.9,0,0,0,12.9,1.9,10.89,10.89,0,0,0,2.6-.5c2.5-.9,3.3-2.4,2.6-5.6a2.55,2.55,0,0,0-1.2-1.5q-2.4-1.5-4.8-2.7a16.85,16.85,0,0,1-6.8-5.6,14.68,14.68,0,0,1-2.3-9.6,18.4,18.4,0,0,1,2.2-8,13.27,13.27,0,0,1,5.4-5.1c4.9-2.5,10.1-2.8,15.4-2.2,2.2.2,4.5.5,6.8.8-.6,3.9-1.2,7.7-1.8,11.6-1.6-.2-3.1-.4-4.7-.5-2.8-.2-5.5-.6-8.2.5a3.54,3.54,0,0,0-2.3,3.4,3.16,3.16,0,0,0,1.8,3.3c2.3,1.2,4.6,2.5,6.8,3.8a12.31,12.31,0,0,1,5.9,9.3,21.21,21.21,0,0,1-1,10.6,11.91,11.91,0,0,1-4.4,5.8c-4.5,3.2-9.6,3.6-14.8,3.4-3.8-.1-7.5-.8-11.2-1.2-.5-.1-.8-.2-.7-.8C99.4,58.2,99.9,54.6,100.5,50.9Z"/><path class="cls-2" d="M110,104.3c-1.5-.6-2.8-1.3-4.2-1.8a9,9,0,0,0-9.5,1.6,13.58,13.58,0,0,0-4,6.7,22.35,22.35,0,0,0-.5,10.9,9.32,9.32,0,0,0,2.8,5,8,8,0,0,0,7.2,2.1,55.38,55.38,0,0,0,5.8-1.7c-.1.8-.3,1.8-.4,2.8l-1.2,9c-.2,1.2-1.2,1.2-1.9,1.4a26.13,26.13,0,0,1-9.2,1.1,14.57,14.57,0,0,1-11.2-6.3,26.7,26.7,0,0,1-3.6-7.4,33.33,33.33,0,0,1-.4-16.6,57.88,57.88,0,0,1,2.1-7.1,24.92,24.92,0,0,1,4.9-7.9c4.4-4.6,9.7-7.2,16.2-6.7a34.21,34.21,0,0,1,6.8,1.8,17.55,17.55,0,0,1,2.4,1.1.81.81,0,0,1,.4.8c-.7,3.6-1.5,7.2-2.3,10.9C110.1,104.1,110,104.2,110,104.3Z"/><path class="cls-1" d="M141.24,5.4h12.68c-.54,2.67-1,5.23-1.5,8h6.36c-.59,4.07-1.19,7.93-1.78,12h-6.27c-.41,2.76-.82,5.51-1.33,8.16-.41,2.25-.82,4.6-1.12,6.84-.41,2.76-.92,5.51-1.12,8.27a5.11,5.11,0,0,0,.71,2.65c.61,1.32,1.94,1.32,3.16,1.32a26.5,26.5,0,0,0,4-.2c-.3,1.94-.61,3.78-.92,5.61-.2,1.33-.4,2.66-.51,4-.1,1-.4,1.74-1.42,1.94-2.76.61-5.51,1.43-8.47,1.33a10.34,10.34,0,0,1-6.84-2.55,9.65,9.65,0,0,1-2.35-4.49,24.5,24.5,0,0,1,0-9.8c.72-4.69,1.43-9.39,2.15-14,.3-2.14.81-4.18,1.12-6.32.92-5.72,1.84-11.43,2.75-17.25C140.73,9.07,141,7.34,141.24,5.4Z"/><path class="cls-1" d="M211.5,63.4H198.91c2.6-16.67,5.09-33.33,7.69-50H218c-.29,2.38-.69,4.77-1,7,.1,0,.1.1.2.1.7-.89,1.29-1.89,2-2.78,2.18-2.78,4.46-5.16,8.44-4.87a6,6,0,0,1,1.19.2,52.23,52.23,0,0,0-4.67,14.3h-.78c-2.8-.2-4.7,1.6-5.6,4-2.1,5.3-2.9,10.9-3.8,16.5-.4,2.6-.9,5.2-1.4,7.9C212.2,58.3,211.9,60.9,211.5,63.4Z"/><path class="cls-1" d="M336.64,13A50.94,50.94,0,0,0,332,27.24a16,16,0,0,0-3.29.6c-2.19.9-3.19,3-3.78,5.08-1,3.59-1.9,7.27-2.59,11-1,5.58-1.8,11.15-2.69,16.83,0,.1-.1.3-.1.4-.3,2.29-.3,2.29-2.49,2.29H306.76c2.59-16.73,5.08-33.37,7.67-50h11.25c-.39,2.39-.69,4.68-1.09,7,.1,0,.2.1.3.1l2.69-3.58c2-2.59,4.38-4.29,7.86-4A5.28,5.28,0,0,1,336.64,13Z"/><path class="cls-2" d="M171.7,90.4c-.2,2.3-.5,4.5-.7,6.7.1,0,.1,0,.2.1a13.3,13.3,0,0,0,1.4-1.9,13.4,13.4,0,0,1,4-4.5,6.54,6.54,0,0,1,5.5-.9,53.91,53.91,0,0,0-4.4,14.5c-.2,0-.3.1-.5,0-2.8-.3-4.4,1.1-5.3,3.5a49.92,49.92,0,0,0-2.2,7.8c-1,5.2-1.7,10.4-2.6,15.7-.45,2.93-.77,6-1.26,8.88l-.14.12H154.1l7.2-50.1C164.8,90.4,168.2,90.4,171.7,90.4Z"/><path class="cls-1" d="M385.5,63.7a7.68,7.68,0,0,1-7.6-7.7,7.56,7.56,0,0,1,7.5-8c4.3,0,7.5,3.3,7.5,7.9A7.41,7.41,0,0,1,385.5,63.7Zm0-13.8a5.65,5.65,0,0,0-5.8,5.9c0,3.4,2.9,6.2,5.7,6.2a6.07,6.07,0,0,0,5.8-6.1C391.2,52.5,388.6,49.7,385.5,49.9Z"/><path class="cls-2" d="M390.87,130c.11-.1.11-.1.21-.1,2.63-.19,2.94.19,3.34,3.31a19.16,19.16,0,0,0,1,4c.1-.28.2-.47.3-.75.41-1.89.92-3.79,1.22-5.68.1-.75.41-.94,1.12-.85a8.74,8.74,0,0,0,1.62,0v9.46h-2v-8h.2c-.5,2.7-1.5,8-1.5,8h-2c-.5-2.36-1-4.64-1.52-7h-.2v7H391C390.87,136.28,390.87,133.16,390.87,130Z"/><path class="cls-2" d="M387.7,139.4h-2v-8h-3v-2h7v2h-2Z"/><path class="cls-1" d="M383.7,56.7v2.7h-1V52.5a24.4,24.4,0,0,1,3.9.1,2.21,2.21,0,0,1,1.4,1.1,1.86,1.86,0,0,1-.5,2.3c-.1.1-.3.2-.4.3.4.9.8,1.8,1.2,2.8a1.41,1.41,0,0,1-2.1-.9C385.9,57.4,385.9,56.2,383.7,56.7Zm1-1.1q1.2-.3,2.1-.6a3.08,3.08,0,0,0,.1-.9,14.13,14.13,0,0,0-2.2-.6Z"/></g></g></g></svg>