<svg xmlns="http://www.w3.org/2000/svg" viewBox="0 0 400.09 108"><defs><style>.cls-1{fill:#029cde;}.cls-2{fill:#023188;}</style></defs><title>paypal-icon</title><g id="Layer_2" data-name="Layer 2"><g id="Layer_1-2" data-name="Layer 1"><g id="paypal"><path class="cls-1" d="M400.09,6.9c-.9.5-.7,1.5-.8,2.1-.9,5.2-1.6,10.4-2.4,15.6-.8,5-1.7,10.1-2.5,15.1-.5,3.4-1,6.7-1.5,10.1-.6,4.1-1.3,8.2-1.9,12.3-.5,3.4-1.1,6.7-1.6,10.1-.6,3.9-1.2,7.9-1.8,11.8a4.44,4.44,0,0,1-4.5,3.8c-4.1.1-8.2,0-12.3,0-2,0-3-1-2.8-3.1.2-2.6.6-5.1,1-7.7.5-3.4,1.1-6.7,1.6-10.1.7-4.4,1.5-8.9,2.1-13.3s1.3-8.6,1.9-12.9,1.4-8.3,2-12.5c.5-3.4,1-6.7,1.5-10.1.6-4.2,1.3-8.3,2-12.5a5.85,5.85,0,0,0,.2-1.3c.3-1.9,1.3-3.1,3.1-3.1,4.5-.1,8.9,0,13.4,0a3.94,3.94,0,0,1,3.1,1.7A26.14,26.14,0,0,1,400.09,6.9Z"/><path class="cls-2" d="M37.93,59H30.85c-.61,0-1.21.1-1.82.1a4.3,4.3,0,0,0-4,3.83C24.4,66.45,23.9,70,23.29,73.5s-1.1,7-1.71,10.57c-.5,2.62-2,3.83-4.73,3.93H3C.83,88-.18,87,0,84.79c.3-2.72.7-5.43,1.1-8.24.8-5.23,1.71-10.45,2.51-15.67C4.75,53.64,6,46.51,7.06,39.28c.8-5.13,1.6-10.15,2.41-15.27.9-6,1.91-12.06,2.81-18.09.1-.4.2-.7.3-1.1.3-2.21,1.71-3.32,3.82-3.72A11,11,0,0,1,18.21,1H47.46a43.83,43.83,0,0,1,13,1.71,22.82,22.82,0,0,1,8.43,4.51,17.7,17.7,0,0,1,6,11.64,41,41,0,0,1-6,26.49c-4,6.32-9.94,10.14-17.16,12A46.57,46.57,0,0,1,37.93,59ZM28.39,41.3c.2.1.3.3.5.3a68.82,68.82,0,0,0,12-.4c5.5-.8,9.2-3.5,10.4-9.4.2-1.1.3-2.2.4-3.3a7.89,7.89,0,0,0-6.9-9.4,58.12,58.12,0,0,0-10.2-.5c-1.7,0-2.4.6-2.9,2.2-.2.8-.2,1.6-.4,2.4C30.29,29.2,29.39,35.3,28.39,41.3Z"/><path class="cls-1" d="M255.49,1H268.9a49.35,49.35,0,0,1,13.26,1.71c7.64,2.31,13,6.83,14.57,15a25.63,25.63,0,0,1,.4,7.33,57.6,57.6,0,0,1-1.91,11c-2.31,8.14-6.83,14.67-14.36,18.79a35.91,35.91,0,0,1-11.66,3.71c-5.32.81-10.54.41-15.87.51a16.35,16.35,0,0,0-2.21.1c-2.81.6-3.92,1.7-4.42,4.52-1.1,6.93-2.11,14-3.21,20.89-.41,2.52-1.41,3.52-4,3.52H225.2a5.83,5.83,0,0,1-1.32-.1,2.77,2.77,0,0,1-2.23-3c.4-2.94.91-5.88,1.42-8.92.5-3.45,1.11-6.8,1.62-10.24.91-5.38,1.72-10.75,2.63-16.23.71-4.25,1.32-8.61,1.93-12.87s1.42-8.52,2.13-12.88c.51-3.44,1-6.79,1.52-10.24.41-3.14,1-6.18,1.42-9.32.3-2.64,2.33-4.16,5.27-4.16h8.8Zm-5.2,40.6a71.7,71.7,0,0,0,8.1-.1c2.4-.3,4.8-.2,7.2-1.1a10.51,10.51,0,0,0,6.3-5.2,18.16,18.16,0,0,0,1.7-8.6,7.14,7.14,0,0,0-5.6-7.3c-4-1.1-8.1-.9-12.2-.8a2.44,2.44,0,0,0-2.3,2.1,18.81,18.81,0,0,0-.5,3.3c-.5,3.4-1.1,6.9-1.6,10.3C251.09,36.6,250.69,39,250.29,41.6Z"/><path class="cls-2" d="M115.29,81.8a39.57,39.57,0,0,1-7.3,4.7,29.15,29.15,0,0,1-24,.9c-6.1-2.4-9.9-7.2-12-13.3-2.5-7.2-2-14.3.4-21.4,3.5-10.1,10-17.5,20-21.4a32.81,32.81,0,0,1,22.9-.5,11.83,11.83,0,0,1,6.4,4.6,5.72,5.72,0,0,0,.7.8.77.77,0,0,1,.3.1c.2-1.1.4-2.3.6-3.4.3-1.6,1.1-2.4,2.7-2.4,4.8,0,9.7-.1,14.5,0,2.1,0,3.1,1.3,2.8,3.4-.4,3.2-1,6.3-1.5,9.4-.8,5.3-1.7,10.5-2.5,15.8-.8,5-1.6,10-2.4,14.9-.5,3.2-1,6.4-1.6,9.7-.5,3-2,4.3-5,4.3h-12.1c-2.5,0-3.3-.9-3.2-3.4a24.52,24.52,0,0,1,.2-2.7c.2-.1.3-.3.2-.4C115.49,81.4,115.39,81.6,115.29,81.8ZM90.89,59.9c-.2,6.7,2.6,11.5,8.6,12.8a19.36,19.36,0,0,0,5.9.3,16.55,16.55,0,0,0,14.8-18.6,10.55,10.55,0,0,0-6.8-9,15.38,15.38,0,0,0-12.6.4C94.29,48.9,91.19,54.3,90.89,59.9Z"/><path class="cls-1" d="M345.07,35.83a31.69,31.69,0,0,1,.61-3.62c1-2.63,1.43-2.57,7.48-1.59l8.89-.49c2.56-.62,4,1.08,3.63,3.19-1,6.33-2,12.76-3,19.1-1,6.13-2.11,12.26-3,18.49-.61,4.12-1.41,8.24-1.91,12.37-.4,3.11-2.11,4.62-5.23,4.72H340.65c-2.81,0-3.82-1.31-3.32-4.12a5.65,5.65,0,0,0,.1-2.61,32.45,32.45,0,0,1-6.83,4.82,30.88,30.88,0,0,1-18,3,23.72,23.72,0,0,1-10.15-3.52c-5.12-3.42-8-8.35-9.45-14.18a29.23,29.23,0,0,1-.9-8.84,37.57,37.57,0,0,1,7.24-20.11A33.91,33.91,0,0,1,316.93,30a28.93,28.93,0,0,1,6.53-1.21c3.92-.1,7.74-.2,11.56.91s7,2.71,9.25,6.13A1.07,1.07,0,0,1,345.07,35.83ZM329.69,44.4a11.42,11.42,0,0,0-3.7.5,16.14,16.14,0,0,0-9.7,6.2,18.66,18.66,0,0,0-3.4,11.9,10.75,10.75,0,0,0,7.9,9.6,20.43,20.43,0,0,0,6.5.5,15.73,15.73,0,0,0,9.7-4.3,16.54,16.54,0,0,0,5.2-10.1,12.08,12.08,0,0,0-3.3-10.9C336.39,45.3,333.09,44.6,329.69,44.4Z"/><path class="cls-2" d="M150.65,32.81a3.11,3.11,0,0,1,3.51-2.71c4.32.1,8.64,0,13.05,0,3.31,0,4.42.8,5.42,4.12,2.51,8.43,5,16.76,7.63,25.19a6.83,6.83,0,0,0,1,2.61,3.46,3.46,0,0,0,1-1.1c6.32-9.34,12.75-18.67,19.07-28.11A5.84,5.84,0,0,1,206.56,30c4.32.1,8.64,0,13.05,0h1.11a2.46,2.46,0,0,1,2.11,3.81A11,11,0,0,1,221.32,36c-7.73,11-15.36,22.19-23.09,33.23-8.33,12-16.66,24-25,36a5.76,5.76,0,0,1-5,2.71c-4.42-.1-8.84,0-13.26,0h-.9c-2.21-.2-3.31-2.21-2.11-4,1-1.6,2.21-3.21,3.32-4.81,3.71-5.32,7.53-10.54,11.24-15.86a10.56,10.56,0,0,0,.9-1.51C161.89,65.74,156.27,49.27,150.65,32.81Z"/></g></g></g></svg>