<svg xmlns="http://www.w3.org/2000/svg" viewBox="0 0 395.55 168.02"><defs><style>.cls-1{fill:#0b5fa2;}.cls-2{fill:#f0a73b;}</style></defs><title>visa-icon</title><g id="Layer_2" data-name="Layer 2"><g id="Layer_1-2" data-name="Layer 1"><g id="verified_by_visa" data-name="verified by visa"><path class="cls-1" d="M322.55,89.21c5.5,26.1,16.5,77.7,16.5,77.7H320.46c-2-3.54-1.46-8-3.23-12H291.68c-1.33,3.61-2.75,7.21-4.08,11H266.05s2.5-5,3.7-7.9c8.6-20.4,17.3-40.8,25.9-61.2a19.62,19.62,0,0,1,1.7-3.2,9.24,9.24,0,0,1,7.3-4C310.45,89,316.35,89.41,322.55,89.21Zm-14.3,21.5c-3.6,9.8-7,18.9-10.4,28.2h16.3C312.15,129.61,310.25,120.51,308.25,110.71Z"/><path class="cls-1" d="M270.75,91.51c-1,5.6-1.9,11-2.8,16.6-1.9-.7-3.5-1.4-5.2-2-5.6-1.7-11.2-2.4-17-1.1a8.42,8.42,0,0,0-6.2,4.6c-.7,2.8.9,4.6,3,6.1a100.46,100.46,0,0,0,10.1,5.7,33.78,33.78,0,0,1,10.2,7.4,18.31,18.31,0,0,1,4.8,15.2c-1.3,11.2-8.1,17.5-17.9,21.3a44.6,44.6,0,0,1-14.9,2.7,70,70,0,0,1-21.3-2.7,10.92,10.92,0,0,1-3.5-1.6c.7-5.7,1.6-11.4,2.8-17.2,4.1,1.8,7.9,3.6,12,4.3,4.7.8,9.4,1.5,14.1.5a13.15,13.15,0,0,0,5.1-2.3,5.78,5.78,0,0,0,.8-8.5,17.81,17.81,0,0,0-6-4.1c-3.8-2-7.8-3.7-11.3-6.3-4.3-3.3-7.9-7-9-12.7a20.32,20.32,0,0,1,4.4-17.3c4.4-5.5,10.2-8.6,17-10.4a50.46,50.46,0,0,1,29.3,1.3C269.65,90.91,270.05,91.11,270.75,91.51Z"/><path class="cls-1" d="M137.15,129.71c1.7,3.8,1.9,7.9,3.1,12.2,6.6-17.6,13.1-34.8,19.6-52h21.7c-10.6,25.8-21.2,51.4-31.8,77h-21.6c-1.4-2.8-1.9-6.1-2.8-9.2-4.3-15.6-8.4-31.3-12.5-46.9-.9-3.5-1.8-7.1-2.6-10.6.4.2.8.3,1.2.5a67.2,67.2,0,0,1,19.2,17.6C133.25,121.91,135,126,137.15,129.71Z"/><path class="cls-1" d="M27.76,70.91H15C9.89,49,5.09,27,0,4.81A122.57,122.57,0,0,1,14.48,2.32c3.39,17.07,6.69,33.85,10.08,51.22C33.35,36.36,41.84,19.59,50.33,2.91H63.61C63.31,5.21,30.36,67.32,27.76,70.91Z"/><path class="cls-1" d="M296.45,70.91h-10.2v-6c-1.6,1.2-2.8,2.3-4.2,3.2-4.5,3-9.3,4.7-15,3.7s-10.3-5-11.4-11.8a35.69,35.69,0,0,1,6.7-27.9c5.6-7.4,13.4-10.2,22.6-8.8,2.1.3,4.1.7,6.4,1.1,1.2-7.4,2.4-14.8,3.6-22.4,4.1-.6,8.1-1.2,12.4-1.9C303.85,23.91,300.15,47.31,296.45,70.91Zm-9.2-16.6c1-6.6,2-13.3,3-19.9-3-2-6.1-2.1-9.2-2.1a9.82,9.82,0,0,0-7.1,3c-5.1,5.2-6.4,11.8-5.8,18.7.4,4.2,2.7,6.4,6.4,6.8a10.22,10.22,0,0,0,5.4-1A22,22,0,0,0,287.25,54.31Z"/><path class="cls-1" d="M189.44,88.91h20.48c-1.81,13-4.32,26-6.23,39s-4.31,26-6.52,39.05H177.29c-.6-3.11.4-6,.8-8.93,1.11-7.93,2.51-15.76,3.82-23.59,1.71-10.24,3.51-20.48,5.22-30.82C187.93,98.75,188.64,93.93,189.44,88.91Z"/><path class="cls-1" d="M251.25,48.91h-30.5a14.89,14.89,0,0,0-.1,4.7c.6,4.4,3.3,7.1,7.7,7.9,4.8.9,9.2-.2,13.5-2,2.2-1,4.4-2.1,6.7-3.3a67.4,67.4,0,0,1,.1,9c-2.7,2.3-5.9,3.4-9.2,4.4-6.2,1.9-12.5,2.4-18.9.5a16.72,16.72,0,0,1-12.1-15.7c-.3-7.8,1.2-15.2,5.7-21.7a24.16,24.16,0,0,1,17.5-10.8,21.52,21.52,0,0,1,8.8.6c5.8,1.5,9.5,5.2,11,11.2C252.85,38.71,252.55,43.61,251.25,48.91Zm-10.6-7.3a14.47,14.47,0,0,0-.8-6.9,6.5,6.5,0,0,0-6.1-4.3,8.74,8.74,0,0,0-6.4,2.3,16.26,16.26,0,0,0-5.3,9C228.35,41.61,234.45,41.61,240.65,41.61Z"/><path class="cls-1" d="M64.35,48.91c-.3,2.9-.4,5.4.8,7.8a8.54,8.54,0,0,0,6.3,4.9c5.2,1.1,10.1-.2,14.8-2.3.66-.29,1.31-.61,2-.94l4,7a38.53,38.53,0,0,1-14.7,5.5,31.3,31.3,0,0,1-12.2-.4c-7.6-2-12.3-6.9-13.1-15.1a33,33,0,0,1,5.4-22.3A24.1,24.1,0,0,1,75.35,22a23.42,23.42,0,0,1,8.8.5c6.4,1.5,10.1,6,11.3,12.2a28.62,28.62,0,0,1-.6,14.2Zm20.2-7c0-1.3.1-2.4,0-3.5-.8-8.3-7.8-9.3-12.6-6.1-3.3,2.2-5,5.6-6.1,9.6Z"/><path class="cls-1" d="M158.49,22.91h5.68c1.12-.91,1-2.13,1.22-3.34a35.92,35.92,0,0,1,1.93-9.14A15,15,0,0,1,177.57,1.1,26.75,26.75,0,0,1,190.25.49v9.73c-1.9,0-3.6-.11-5.4,0-3.4.1-5.6,1.52-6.4,5.16-.5,2.33-1.2,4.77-.8,7.4,2.8.61,5.6,0,8.6.3v9.83h-10.5c-2,12.77-3.9,25.34-5.9,38H157.27c1.93-12.68,4-25.06,5.89-37.75-2.13-.5-4.26,0-6.29-.3A19.45,19.45,0,0,1,158.49,22.91Z"/><path class="cls-1" d="M318.55,68.61c2.6-16.8,5.2-33.5,7.9-50.5,3.2-.1,6.1-1.2,9.4-1-1.1,6.9-2.1,13.7-3.2,20.8,1.6-1,2.9-1.8,4.3-2.5a12.36,12.36,0,0,1,9-1.4c5.1,1,7.9,4.1,8.6,8.9a27.91,27.91,0,0,1-3.5,18.9,18.77,18.77,0,0,1-14.9,9.2A41.3,41.3,0,0,1,318.55,68.61Zm10.2-6.1c4.5,1.8,8.8,1.9,12.2-1.5,4.2-4.2,5.4-9.5,3.9-15.3-.9-3.4-3.5-4.5-6.9-3.6-2.6.7-4.4,2.5-6.5,4.3C330.55,51.51,329.65,56.81,328.75,62.51Z"/><path class="cls-1" d="M110.88,69.91h-12c2.08-15.76,4.77-31.23,7.15-47h10.24V31.6c2.19-2.4,3.88-4.49,6.17-6,3.18-2.2,6.56-4,10.83-3.69V33a3.2,3.2,0,0,1-1.89.8c-6.56.9-11.73,4-16.3,9.08C113.77,51.75,112.38,60.73,110.88,69.91Z"/><path class="cls-1" d="M360.45,35.61c3.2-1,6.3-.9,9.5-1.5,1.2,4,1.6,8.1,2.4,12.2s1.4,8,2.2,12.3c1.8-1.5,2.1-3.8,3.1-5.6,1.1-2,2-4.2,3-6.2s2-3.9,2.9-5.9a36.75,36.75,0,0,1,2.9-6h9.1c-3,5.8-5.8,11.5-8.8,17.2-3.4,6.6-6.9,13.1-10.4,19.6a39.09,39.09,0,0,1-4,6.5c-4.13,5.56-9.7,6.93-16.28,5.77l1.08-7.16c4.72.5,8.72-.37,10.6-6.11C365.45,59.31,363,47.61,360.45,35.61Z"/><path class="cls-1" d="M145.34,69.91H133.29c2.49-15.73,4.88-31.26,7.37-47h12c0,3.89-1.19,7.67-1.59,11.56s-1.2,8.06-1.79,12-1.3,7.77-1.9,11.65S146,65.93,145.34,69.91Z"/><path class="cls-1" d="M193,22.91h12.17c-2.49,15.77-4.89,31.34-7.38,47H185.67C188.17,54.25,190.56,38.68,193,22.91Z"/><path class="cls-2" d="M137.15,129c-2.2-3.8-3.9-7.8-6.6-11.4a67.2,67.2,0,0,0-19.2-17.6c-.4-.2-.8-.3-1.2-.5-3.6-2.7-7.9-4.3-12-5.9-2.9-1.1-6-2-8.9-3a1.4,1.4,0,0,1,.2-1.4c.5-.5,1.2-.3,1.9-.3h29a38,38,0,0,1,4.6.5c3.7.6,5.6,3.1,6.3,6.4,1.8,8.2,3.2,16.5,4.8,24.8C136.45,123.41,137.65,126.11,137.15,129Z"/><path class="cls-1" d="M200.35,15.11c-4.4.7-7.9-3.9-5.6-8.9,1.6-3.4,6.3-5.6,9.8-4.4,3.9,1.3,4.8,4.6,3.5,8.4C207.15,13.41,204.25,15.11,200.35,15.11Z"/><path class="cls-1" d="M142.05,11.81a8,8,0,0,1,5.2-9.7c4.9-1.6,9.3.8,9.1,6.1-.1,2.8-3,5.9-5.7,6.8C147.25,16,144.35,15,142.05,11.81Z"/></g></g></g></svg>